<svg xmlns="http://www.w3.org/2000/svg" viewBox="0 0 1080 675" role="img" aria-labelledby="title desc">
<title id="title">Numerical RMSE ranking versus MCS survival under squared-error loss</title>
<desc id="desc">Points compare mean RMSE rank with the percentage of squared-error Model Confidence Set panels in which each approach survives.</desc>
<rect width="100%" height="100%" fill="#fff"/>
<style>text{font-family:Arial,Helvetica,sans-serif;fill:#202428}.title{font-family:Georgia,serif;font-size:29px}.axis{font-size:16px}.label{font-size:15px}.note{font-size:14px;fill:#5d6267}.grid{stroke:#e1e3df;stroke-width:1}.pt{fill:#1d4f66;stroke:#fff;stroke-width:2}</style>
<text class="title" x="540.0" y="48" text-anchor="middle">Numerical RMSE Ranking vs. Squared-Error MCS Survival</text>
<line class="grid" x1="184.9" y1="110" x2="184.9" y2="590"/>
<text class="axis" x="184.9" y="620" text-anchor="middle">4</text>
<line class="grid" x1="314.8" y1="110" x2="314.8" y2="590"/>
<text class="axis" x="314.8" y="620" text-anchor="middle">5</text>
<line class="grid" x1="444.6" y1="110" x2="444.6" y2="590"/>
<text class="axis" x="444.6" y="620" text-anchor="middle">6</text>
<line class="grid" x1="574.5" y1="110" x2="574.5" y2="590"/>
<text class="axis" x="574.5" y="620" text-anchor="middle">7</text>
<line class="grid" x1="704.3" y1="110" x2="704.3" y2="590"/>
<text class="axis" x="704.3" y="620" text-anchor="middle">8</text>
<line class="grid" x1="834.2" y1="110" x2="834.2" y2="590"/>
<text class="axis" x="834.2" y="620" text-anchor="middle">9</text>
<line class="grid" x1="964.0" y1="110" x2="964.0" y2="590"/>
<text class="axis" x="964.0" y="620" text-anchor="middle">10</text>
<line class="grid" x1="120" y1="517.3" x2="990" y2="517.3"/>
<text class="axis" x="104" y="522.3" text-anchor="end">87.5%</text>
<line class="grid" x1="120" y1="444.5" x2="990" y2="444.5"/>
<text class="axis" x="104" y="449.5" text-anchor="end">90%</text>
<line class="grid" x1="120" y1="371.8" x2="990" y2="371.8"/>
<text class="axis" x="104" y="376.8" text-anchor="end">92.5%</text>
<line class="grid" x1="120" y1="299.1" x2="990" y2="299.1"/>
<text class="axis" x="104" y="304.1" text-anchor="end">95%</text>
<line class="grid" x1="120" y1="226.4" x2="990" y2="226.4"/>
<text class="axis" x="104" y="231.4" text-anchor="end">97.5%</text>
<line class="grid" x1="120" y1="153.6" x2="990" y2="153.6"/>
<text class="axis" x="104" y="158.6" text-anchor="end">100%</text>
<circle class="pt" cx="184.9" cy="153.6" r="7"/>
<text class="label" x="179.9" y="181.6" text-anchor="end">XGBoost</text>
<circle class="pt" cx="249.9" cy="153.6" r="7"/>
<text class="label" x="259.9" y="135.6" text-anchor="start">Mean</text>
<circle class="pt" cx="266.1" cy="153.6" r="7"/>
<text class="label" x="276.1" y="181.6" text-anchor="start">Median</text>
<circle class="pt" cx="331.0" cy="153.6" r="7"/>
<text class="label" x="341.0" y="135.6" text-anchor="start">Inv-RMSE</text>
<circle class="pt" cx="339.1" cy="517.3" r="7"/>
<text class="label" x="349.1" y="539.3" text-anchor="start">RF</text>
<circle class="pt" cx="347.2" cy="335.5" r="7"/>
<text class="label" x="357.2" y="321.5" text-anchor="start">Boruta RF</text>
<circle class="pt" cx="509.6" cy="153.6" r="7"/>
<text class="label" x="519.6" y="181.6" text-anchor="start">AR(4)</text>
<circle class="pt" cx="647.5" cy="153.6" r="7"/>
<text class="label" x="657.5" y="135.6" text-anchor="start">Ridge</text>
<circle class="pt" cx="680.0" cy="153.6" r="7"/>
<text class="label" x="690.0" y="181.6" text-anchor="start">LASSO</text>
<circle class="pt" cx="712.4" cy="153.6" r="7"/>
<text class="label" x="722.4" y="135.6" text-anchor="start">Elastic Net</text>
<circle class="pt" cx="891.0" cy="153.6" r="7"/>
<text class="label" x="881.0" y="181.6" text-anchor="end">Factor</text>
<circle class="pt" cx="947.8" cy="153.6" r="7"/>
<text class="label" x="937.8" y="135.6" text-anchor="end">RW</text>
<text class="axis" x="555.0" y="660" text-anchor="middle">Mean RMSE rank (lower is better)</text>
<text class="axis" transform="translate(30 350.0) rotate(-90)" text-anchor="middle">Squared-error MCS survival rate</text>
</svg>
